# xmcd
#
# Track frame offsets: 
#        150
#        10076
#        21665
#        36311
#        47384
#        59707
#        71188
#        81440
#        92307
#        103953
#        115450
#        130905
#
# Disc length: 1850 seconds
#
# Revision: 0
# Processed by: cddbd v1.5.2PL0 Copyright (c) Steve Scherf et al.
# Submitted via: ExactAudioCopy v1.3
#
DISCID=ab07380c
DTITLE=Jimmy Dean - The First Thing Ev'ry Morning
DYEAR=2013
DGENRE=Country
TTITLE0=The First Thing Ev'ry Morning
TTITLE1=Under The Sun
TTITLE2=Dear Heart
TTITLE3=Too Many Times
TTITLE4=Someday (You'll Want Me To Want You)
TTITLE5=Shutters And Boards
TTITLE6=Any Time
TTITLE7=Till Tommorrow
TTITLE8=Where Were You When I Needed You
TTITLE9=All By Myself
TTITLE10=Put On Your Old Grey Bonnet
TTITLE11=Harvest Of Sunshine
EXTD=
EXTT0=
EXTT1=
EXTT2=
EXTT3=
EXTT4=
EXTT5=
EXTT6=
EXTT7=
EXTT8=
EXTT9=
EXTT10=
EXTT11=
PLAYORDER=
